<svg width="16" height="17" viewBox="0 0 16 17" fill="none" xmlns="http://www.w3.org/2000/svg">
<path d="M13.4301 11.7473L13.4306 11.7481C13.4749 11.8241 13.4983 11.9103 13.4986 11.9982C13.499 12.0861 13.4761 12.1725 13.4324 12.2488C13.3886 12.325 13.3256 12.3884 13.2496 12.4325C13.1735 12.4766 13.0872 12.4999 12.9993 12.5H10.4494H10.1209H10.0412H9.41375H6.58625H5.95878H5.87914H5.55063H3.00036C2.91244 12.4999 2.82609 12.4767 2.75002 12.4326C2.67395 12.3885 2.61085 12.3252 2.56708 12.2489C2.52331 12.1727 2.50043 12.0862 2.50073 11.9983C2.50103 11.9104 2.52451 11.8241 2.5688 11.7481L2.56929 11.7473C2.97432 11.0496 3.5 9.26439 3.5 7C3.5 5.80653 3.97411 4.66193 4.81802 3.81802C5.66193 2.97411 6.80653 2.5 8 2.5C9.19347 2.5 10.3381 2.97411 11.182 3.81802C12.0259 4.66193 12.5 5.80653 12.5 7C12.5 9.26359 13.025 11.0495 13.4301 11.7473ZM9.88515 13.1667L9.89599 13.136C9.81704 13.3712 9.69511 13.5893 9.53687 13.7793C9.68744 13.5984 9.80578 13.3912 9.88515 13.1667ZM6.11485 13.1667C6.19423 13.3912 6.31256 13.5984 6.46314 13.7793C6.30489 13.5893 6.18296 13.3712 6.10401 13.136L6.11485 13.1667ZM8.86575 13.7246C8.61257 13.9037 8.31011 13.9999 8 14L8.86556 13C8.89606 12.9472 8.92181 12.8914 8.94235 12.8333L9.41375 13V13.5H9.11757C9.04276 13.5836 8.95839 13.6591 8.86575 13.7246Z" stroke="black" />
<path d="M14 4C14 5.65685 12.6569 7 11 7C9.34315 7 8 5.65685 8 4C8 2.34315 9.34315 1 11 1C12.6569 1 14 2.34315 14 4Z" fill="#9060FE"/>
</svg>
