<svg width="24" height="24" viewBox="0 0 24 24" fill="none" xmlns="http://www.w3.org/2000/svg">
<path d="M19.1875 3.375H17.0312V2.65625C17.0312 2.46563 16.9555 2.28281 16.8207 2.14802C16.6859 2.01323 16.5031 1.9375 16.3125 1.9375C16.1219 1.9375 15.9391 2.01323 15.8043 2.14802C15.6695 2.28281 15.5938 2.46563 15.5938 2.65625V3.375H8.40625V2.65625C8.40625 2.46563 8.33052 2.28281 8.19573 2.14802C8.06094 2.01323 7.87812 1.9375 7.6875 1.9375C7.49688 1.9375 7.31406 2.01323 7.17927 2.14802C7.04448 2.28281 6.96875 2.46563 6.96875 2.65625V3.375H4.8125C4.43125 3.375 4.06562 3.52645 3.79603 3.79603C3.52645 4.06562 3.375 4.43125 3.375 4.8125V19.1875C3.375 19.5687 3.52645 19.9344 3.79603 20.204C4.06562 20.4735 4.43125 20.625 4.8125 20.625H19.1875C19.5687 20.625 19.9344 20.4735 20.204 20.204C20.4735 19.9344 20.625 19.5687 20.625 19.1875V4.8125C20.625 4.43125 20.4735 4.06562 20.204 3.79603C19.9344 3.52645 19.5687 3.375 19.1875 3.375ZM10.5625 17.0312C10.5625 17.2219 10.4868 17.4047 10.352 17.5395C10.2172 17.6743 10.0344 17.75 9.84375 17.75C9.65313 17.75 9.47031 17.6743 9.33552 17.5395C9.20073 17.4047 9.125 17.2219 9.125 17.0312V12.4438L8.72789 12.6433C8.55728 12.7286 8.35977 12.7426 8.17882 12.6823C7.99786 12.622 7.84827 12.4922 7.76297 12.3216C7.67766 12.151 7.66363 11.9535 7.72395 11.7726C7.78427 11.5916 7.914 11.442 8.08461 11.3567L9.52211 10.638C9.63173 10.5831 9.75356 10.5572 9.87601 10.5627C9.99847 10.5682 10.1175 10.6049 10.2217 10.6694C10.326 10.7339 10.412 10.8239 10.4717 10.931C10.5313 11.0381 10.5626 11.1587 10.5625 11.2812V17.0312ZM15.5938 16.3125C15.7844 16.3125 15.9672 16.3882 16.102 16.523C16.2368 16.6578 16.3125 16.8406 16.3125 17.0312C16.3125 17.2219 16.2368 17.4047 16.102 17.5395C15.9672 17.6743 15.7844 17.75 15.5938 17.75H12.7188C12.5853 17.75 12.4544 17.7128 12.3409 17.6427C12.2273 17.5725 12.1356 17.4721 12.0759 17.3527C12.0162 17.2333 11.9909 17.0996 12.0029 16.9667C12.0149 16.8338 12.0637 16.7068 12.1438 16.6L14.7295 13.1527C14.7883 13.0744 14.8305 12.9849 14.8534 12.8897C14.8764 12.7945 14.8797 12.6956 14.8631 12.5991C14.8465 12.5026 14.8104 12.4105 14.7569 12.3285C14.7034 12.2465 14.6337 12.1762 14.5521 12.1221C14.4705 12.0679 14.3787 12.0311 14.2823 12.0137C14.186 11.9963 14.0871 11.9988 13.9917 12.021C13.8963 12.0432 13.8065 12.0847 13.7277 12.1429C13.649 12.2011 13.5829 12.2747 13.5336 12.3594C13.4878 12.4437 13.4256 12.518 13.3506 12.5779C13.2756 12.6379 13.1894 12.6821 13.097 12.7082C13.0046 12.7342 12.908 12.7415 12.8127 12.7296C12.7175 12.7177 12.6256 12.6868 12.5425 12.6388C12.4594 12.5908 12.3867 12.5266 12.3288 12.4501C12.2709 12.3735 12.2289 12.2862 12.2053 12.1931C12.1817 12.1001 12.177 12.0033 12.1914 11.9084C12.2058 11.8135 12.2391 11.7224 12.2893 11.6406C12.5267 11.2298 12.893 10.9087 13.3315 10.7272C13.7699 10.5457 14.256 10.5139 14.7144 10.6367C15.1727 10.7595 15.5778 11.0301 15.8667 11.4066C16.1557 11.783 16.3123 12.2442 16.3125 12.7188C16.314 13.1875 16.1612 13.6437 15.8777 14.017L14.1562 16.3125H15.5938ZM4.8125 7.6875V4.8125H6.96875V5.53125C6.96875 5.72187 7.04448 5.90469 7.17927 6.03948C7.31406 6.17427 7.49688 6.25 7.6875 6.25C7.87812 6.25 8.06094 6.17427 8.19573 6.03948C8.33052 5.90469 8.40625 5.72187 8.40625 5.53125V4.8125H15.5938V5.53125C15.5938 5.72187 15.6695 5.90469 15.8043 6.03948C15.9391 6.17427 16.1219 6.25 16.3125 6.25C16.5031 6.25 16.6859 6.17427 16.8207 6.03948C16.9555 5.90469 17.0312 5.72187 17.0312 5.53125V4.8125H19.1875V7.6875H4.8125Z" fill="#A9AAAF"/>
</svg>
