<svg width="24" height="24" viewBox="0 0 24 24" fill="none" xmlns="http://www.w3.org/2000/svg">
<path d="M19.9063 4.8125H4.09378C3.71253 4.8125 3.34689 4.96395 3.07731 5.23353C2.80773 5.50312 2.65628 5.86875 2.65628 6.25V20.625C2.65462 20.8991 2.73216 21.1679 2.87959 21.399C3.02702 21.6301 3.23805 21.8137 3.48733 21.9277C3.67729 22.0162 3.88424 22.0622 4.09378 22.0625C4.43123 22.0617 4.75749 21.9414 5.01467 21.7229L5.02276 21.7166L7.95706 19.1875H19.9063C20.2875 19.1875 20.6532 19.036 20.9227 18.7665C21.1923 18.4969 21.3438 18.1312 21.3438 17.75V6.25C21.3438 5.86875 21.1923 5.50312 20.9227 5.23353C20.6532 4.96395 20.2875 4.8125 19.9063 4.8125ZM14.875 14.1562H9.12503C8.9344 14.1562 8.75159 14.0805 8.61679 13.9457C8.482 13.8109 8.40628 13.6281 8.40628 13.4375C8.40628 13.2469 8.482 13.0641 8.61679 12.9293C8.75159 12.7945 8.9344 12.7188 9.12503 12.7188H14.875C15.0656 12.7188 15.2485 12.7945 15.3833 12.9293C15.5181 13.0641 15.5938 13.2469 15.5938 13.4375C15.5938 13.6281 15.5181 13.8109 15.3833 13.9457C15.2485 14.0805 15.0656 14.1562 14.875 14.1562ZM14.875 11.2812H9.12503C8.9344 11.2812 8.75159 11.2055 8.61679 11.0707C8.482 10.9359 8.40628 10.7531 8.40628 10.5625C8.40628 10.3719 8.482 10.1891 8.61679 10.0543C8.75159 9.91948 8.9344 9.84375 9.12503 9.84375H14.875C15.0656 9.84375 15.2485 9.91948 15.3833 10.0543C15.5181 10.1891 15.5938 10.3719 15.5938 10.5625C15.5938 10.7531 15.5181 10.9359 15.3833 11.0707C15.2485 11.2055 15.0656 11.2812 14.875 11.2812Z" fill="#A9AAAF"/>
</svg>
