<svg width="24" height="24" viewBox="0 0 24 24" fill="none" xmlns="http://www.w3.org/2000/svg">
<path d="M20.625 4.8125H3.375C2.99375 4.8125 2.62812 4.96395 2.35853 5.23353C2.08895 5.50312 1.9375 5.86875 1.9375 6.25V17.75C1.9375 18.1312 2.08895 18.4969 2.35853 18.7665C2.62812 19.036 2.99375 19.1875 3.375 19.1875H20.625C21.0062 19.1875 21.3719 19.036 21.6415 18.7665C21.911 18.4969 22.0625 18.1312 22.0625 17.75V6.25C22.0625 5.86875 21.911 5.50312 21.6415 5.23353C21.3719 4.96395 21.0062 4.8125 20.625 4.8125ZM12.7188 16.3125H11.2812C11.0906 16.3125 10.9078 16.2368 10.773 16.102C10.6382 15.9672 10.5625 15.7844 10.5625 15.5938C10.5625 15.4031 10.6382 15.2203 10.773 15.0855C10.9078 14.9507 11.0906 14.875 11.2812 14.875H12.7188C12.9094 14.875 13.0922 14.9507 13.227 15.0855C13.3618 15.2203 13.4375 15.4031 13.4375 15.5938C13.4375 15.7844 13.3618 15.9672 13.227 16.102C13.0922 16.2368 12.9094 16.3125 12.7188 16.3125ZM18.4688 16.3125H15.5938C15.4031 16.3125 15.2203 16.2368 15.0855 16.102C14.9507 15.9672 14.875 15.7844 14.875 15.5938C14.875 15.4031 14.9507 15.2203 15.0855 15.0855C15.2203 14.9507 15.4031 14.875 15.5938 14.875H18.4688C18.6594 14.875 18.8422 14.9507 18.977 15.0855C19.1118 15.2203 19.1875 15.4031 19.1875 15.5938C19.1875 15.7844 19.1118 15.9672 18.977 16.102C18.8422 16.2368 18.6594 16.3125 18.4688 16.3125ZM3.375 8.40625V6.25H20.625V8.40625H3.375Z" fill="#A9AAAF"/>
</svg>
