<svg width="9" height="22" viewBox="0 0 9 22" fill="none" xmlns="http://www.w3.org/2000/svg">
<path d="M4.5 7.96585C5.09068 7.96563 5.67552 7.87249 6.22114 7.69174C6.76675 7.51098 7.26245 7.24616 7.67994 6.91238C8.09742 6.57861 8.42851 6.18242 8.65431 5.74643C8.8801 5.31045 8.99618 4.84321 8.99591 4.3714C8.99564 3.89958 8.87903 3.43243 8.65274 2.99661C8.42645 2.56079 8.09491 2.16484 7.67704 1.83137C7.25918 1.4979 6.76318 1.23343 6.21736 1.05307C5.67154 0.872717 5.08659 0.779998 4.49591 0.780213C3.30298 0.780646 2.15912 1.15959 1.31597 1.83368C0.472828 2.50777 -0.000541776 3.42179 4.65337e-07 4.37466C0.000542707 5.32754 0.474953 6.24121 1.31887 6.91469C2.16278 7.58817 3.30707 7.96628 4.5 7.96585ZM4.5 13.845C3.30653 13.845 2.16193 14.2237 1.31802 14.8978C0.474106 15.5719 4.65337e-07 16.4861 4.65337e-07 17.4395C4.65337e-07 18.3928 0.474106 19.307 1.31802 19.9811C2.16193 20.6552 3.30653 21.0339 4.5 21.0339C5.69348 21.0339 6.83807 20.6552 7.68198 19.9811C8.52589 19.307 9 18.3928 9 17.4395C9 16.4861 8.52589 15.5719 7.68198 14.8978C6.83807 14.2237 5.69348 13.845 4.5 13.845Z" fill="#919296"/>
</svg>
