<svg width="23" height="23" viewBox="0 0 23 23" fill="none" xmlns="http://www.w3.org/2000/svg">
<path d="M12.9375 19.4062L4.31248 19.4062C3.93124 19.4062 3.5656 19.2548 3.29602 18.9852C3.02644 18.7156 2.87498 18.35 2.87498 17.9687L2.87498 5.03125C2.87498 4.65 3.02644 4.28437 3.29602 4.01478C3.5656 3.7452 3.93124 3.59375 4.31248 3.59375L12.9375 3.59375C13.3187 3.59375 13.6844 3.7452 13.9539 4.01478C14.2235 4.28437 14.375 4.65 14.375 5.03125L14.375 10.7812L10.0625 10.7812C9.87186 10.7812 9.68904 10.857 9.55425 10.9918C9.41946 11.1266 9.34373 11.3094 9.34373 11.5C9.34373 11.6906 9.41946 11.8734 9.55425 12.0082C9.68904 12.143 9.87186 12.2187 10.0625 12.2187L14.375 12.2187L14.375 17.9687C14.375 18.35 14.2235 18.7156 13.9539 18.9852C13.6844 19.2548 13.3187 19.4062 12.9375 19.4062ZM19.1089 12.2187L16.7415 14.5852C16.6066 14.7201 16.5308 14.903 16.5308 15.0937C16.5308 15.2845 16.6066 15.4674 16.7415 15.6023C16.8763 15.7371 17.0593 15.8129 17.25 15.8129C17.4407 15.8129 17.6236 15.7371 17.7585 15.6023L21.3522 12.0085C21.4191 11.9418 21.4721 11.8625 21.5083 11.7752C21.5444 11.688 21.563 11.5945 21.563 11.5C21.563 11.4055 21.5444 11.312 21.5083 11.2248C21.4721 11.1375 21.4191 11.0582 21.3522 10.9915L17.7585 7.39773C17.6236 7.26287 17.4407 7.1871 17.25 7.1871C17.0593 7.1871 16.8763 7.26287 16.7415 7.39773C16.6066 7.5326 16.5308 7.71552 16.5308 7.90625C16.5308 8.09698 16.6066 8.2799 16.7415 8.41477L19.1089 10.7812L14.375 10.7812L14.375 12.2187L19.1089 12.2187Z" fill="#919296"/>
</svg>
