<svg width="24" height="24" viewBox="0 0 24 24" fill="none" xmlns="http://www.w3.org/2000/svg">
<path d="M19.9062 12.1941C19.9098 12.0647 19.9098 11.9353 19.9062 11.8059L21.2467 10.1312C21.317 10.0433 21.3656 9.94011 21.3887 9.82994C21.4118 9.71976 21.4087 9.60571 21.3797 9.49695C21.1595 8.67106 20.8308 7.87802 20.4022 7.13855C20.346 7.04181 20.268 6.95951 20.1744 6.89821C20.0808 6.83692 19.9742 6.79831 19.8631 6.78547L17.732 6.54828C17.6434 6.45484 17.5535 6.365 17.4625 6.27875L17.2109 4.14226C17.198 4.03105 17.1592 3.92439 17.0978 3.8308C17.0363 3.73721 16.9538 3.65927 16.8569 3.6032C16.1175 3.17487 15.3244 2.84676 14.4985 2.6275C14.3898 2.59844 14.2757 2.59534 14.1655 2.61843C14.0554 2.64153 13.9522 2.69018 13.8642 2.76047L12.194 4.09375C12.0647 4.09375 11.9353 4.09375 11.8059 4.09375L10.1312 2.75598C10.0433 2.68569 9.94009 2.63704 9.82992 2.61394C9.71975 2.59085 9.60569 2.59395 9.49693 2.62301C8.67104 2.84315 7.878 3.17185 7.13853 3.60051C7.04179 3.65668 6.95949 3.73467 6.89819 3.82825C6.8369 3.92184 6.79829 4.02844 6.78545 4.13957L6.54826 6.27426C6.45482 6.3635 6.36498 6.45335 6.27873 6.54379L4.14225 6.78906C4.03103 6.802 3.92438 6.84074 3.83078 6.9022C3.73719 6.96366 3.65926 7.04613 3.60318 7.14305C3.17494 7.88261 2.84655 8.67564 2.62658 9.50144C2.59765 9.61027 2.59469 9.72437 2.61794 9.83454C2.64119 9.94472 2.69001 10.0479 2.76045 10.1357L4.09373 11.8059C4.09373 11.9353 4.09373 12.0647 4.09373 12.1941L2.75596 13.8687C2.68567 13.9567 2.63702 14.0599 2.61392 14.1701C2.59083 14.2802 2.59393 14.3943 2.62299 14.503C2.84313 15.3289 3.17183 16.122 3.60049 16.8614C3.65666 16.9582 3.73465 17.0405 3.82823 17.1018C3.92182 17.1631 4.02842 17.2017 4.13955 17.2145L6.27064 17.4517C6.35989 17.5452 6.44973 17.635 6.54018 17.7212L6.78904 19.8577C6.80198 19.969 6.84072 20.0756 6.90218 20.1692C6.96364 20.2628 7.04611 20.3407 7.14303 20.3968C7.88259 20.825 8.67562 21.1534 9.50143 21.3734C9.61025 21.4023 9.72435 21.4053 9.83452 21.382C9.9447 21.3588 10.0479 21.31 10.1357 21.2395L11.8059 19.9062C11.9353 19.9098 12.0647 19.9098 12.194 19.9062L13.8687 21.2467C13.9567 21.317 14.0599 21.3657 14.17 21.3888C14.2802 21.4118 14.3943 21.4087 14.503 21.3797C15.329 21.1599 16.1221 20.8312 16.8614 20.4022C16.9582 20.346 17.0405 20.268 17.1018 20.1744C17.1631 20.0809 17.2017 19.9743 17.2145 19.8631L17.4517 17.732C17.5451 17.6434 17.635 17.5535 17.7212 17.4625L19.8577 17.2109C19.9689 17.198 20.0756 17.1593 20.1692 17.0978C20.2628 17.0363 20.3407 16.9539 20.3968 16.857C20.825 16.1174 21.1534 15.3244 21.3734 14.4986C21.4023 14.3897 21.4053 14.2756 21.382 14.1655C21.3588 14.0553 21.31 13.9521 21.2395 13.8643L19.9062 12.1941ZM12 15.5937C11.2892 15.5937 10.5944 15.383 10.0034 14.9881C9.41241 14.5932 8.95179 14.0319 8.67979 13.3753C8.40779 12.7186 8.33662 11.996 8.47528 11.2989C8.61395 10.6018 8.95622 9.96143 9.45882 9.45883C9.96141 8.95624 10.6018 8.61397 11.2989 8.4753C11.996 8.33664 12.7186 8.4078 13.3752 8.67981C14.0319 8.95181 14.5932 9.41243 14.9881 10.0034C15.383 10.5944 15.5937 11.2892 15.5937 12C15.5937 12.9531 15.2151 13.8672 14.5411 14.5412C13.8672 15.2151 12.9531 15.5937 12 15.5937Z" fill="#A9AAAF"/>
</svg>
