<svg width="414" height="115" viewBox="0 0 414 115" fill="none" xmlns="http://www.w3.org/2000/svg">
<path d="M3 18.2802V62.2802M3 2.78021V46.7802" stroke="#EFF1FB" stroke-width="5" stroke-linecap="round"/>
<path d="M3 16.7802V62.7802" stroke="#692DFD" stroke-width="5" stroke-linecap="round"/>
<path d="M40.0909 18.2802V62.2802M40.0909 2.78021V46.7802" stroke="#EFF1FB" stroke-width="5" stroke-linecap="round"/>
<path d="M40.0909 31.7802L40.0909 62.7802" stroke="#C9A8FF" stroke-width="5" stroke-linecap="round"/>
<path d="M77.1818 18.2802V62.2802M77.1818 2.78021V46.7802" stroke="#EFF1FB" stroke-width="5" stroke-linecap="round"/>
<path d="M77.1818 26.7802L77.1818 62.7802" stroke="#692DFD" stroke-width="5" stroke-linecap="round"/>
<path d="M114.273 18.2802V62.2802M114.273 2.78021V46.7802" stroke="#EFF1FB" stroke-width="5" stroke-linecap="round"/>
<path d="M114.273 48.7802L114.273 62.7802" stroke="#C9A8FF" stroke-width="5" stroke-linecap="round"/>
<path d="M151.364 18.2802V62.2802M151.364 2.78021V46.7802" stroke="#EFF1FB" stroke-width="5" stroke-linecap="round"/>
<path d="M151.364 16.7802V62.7802" stroke="#692DFD" stroke-width="5" stroke-linecap="round"/>
<path d="M188.455 18.2802V62.2802M188.455 2.78021V46.7802" stroke="#EFF1FB" stroke-width="5" stroke-linecap="round"/>
<path d="M188.455 34.7802L188.455 62.7802" stroke="#C9A8FF" stroke-width="5" stroke-linecap="round"/>
<path d="M225.545 18.2802V62.2802M225.545 2.78021V46.7802" stroke="#EFF1FB" stroke-width="5" stroke-linecap="round"/>
<path d="M225.545 26.7802L225.545 62.7802" stroke="#692DFD" stroke-width="5" stroke-linecap="round"/>
<path d="M262.636 18.2802V62.2802M262.636 2.78021V46.7802" stroke="#EFF1FB" stroke-width="5" stroke-linecap="round"/>
<path d="M262.636 7.78021L262.636 62.7802" stroke="#C9A8FF" stroke-width="5" stroke-linecap="round"/>
<path d="M299.727 18.2802V62.2802M299.727 2.78021V46.7802" stroke="#EFF1FB" stroke-width="5" stroke-linecap="round"/>
<path d="M299.727 49.7802L299.727 62.7802" stroke="#692DFD" stroke-width="5" stroke-linecap="round"/>
<path d="M336.818 18.2802V62.2802M336.818 2.78021V46.7802" stroke="#EFF1FB" stroke-width="5" stroke-linecap="round"/>
<path d="M336.818 39.7802L336.818 62.7802" stroke="#C9A8FF" stroke-width="5" stroke-linecap="round"/>
<path d="M373.909 18.2802V62.2802M373.909 2.78021V46.7802" stroke="#EFF1FB" stroke-width="5" stroke-linecap="round"/>
<path d="M373.909 28.7802L373.909 62.7802" stroke="#692DFD" stroke-width="5" stroke-linecap="round"/>
<path d="M411 18.2802V62.2802M411 2.78021V46.7802" stroke="#EFF1FB" stroke-width="5" stroke-linecap="round"/>
<path d="M411 16.7802V62.7802" stroke="#C9A8FF" stroke-width="5" stroke-linecap="round"/>
<path d="M3.876 103.424V102.5H4.86V103.424H3.876ZM2.364 113.096L2.316 112.496L2.82 112.448C3.204 112.416 3.496 112.276 3.696 112.028C3.904 111.788 4.008 111.448 4.008 111.008V104.96H4.74V110.948C4.74 111.276 4.7 111.564 4.62 111.812C4.54 112.068 4.42 112.284 4.26 112.46C4.108 112.636 3.916 112.776 3.684 112.88C3.46 112.984 3.192 113.044 2.88 113.06L2.364 113.096ZM8.45531 110.876C8.06331 110.876 7.71131 110.8 7.39931 110.648C7.09531 110.496 6.85131 110.288 6.66731 110.024C6.49131 109.76 6.40331 109.464 6.40331 109.136C6.40331 108.704 6.51131 108.364 6.72731 108.116C6.94331 107.868 7.30731 107.696 7.81931 107.6C8.33131 107.496 9.03531 107.444 9.93131 107.444H10.4473V107.984H9.94331C9.40731 107.984 8.95531 108 8.58731 108.032C8.22731 108.064 7.94331 108.124 7.73531 108.212C7.52731 108.292 7.37931 108.404 7.29131 108.548C7.21131 108.692 7.17131 108.868 7.17131 109.076C7.17131 109.436 7.29531 109.728 7.54331 109.952C7.79131 110.176 8.12731 110.288 8.55131 110.288C8.89531 110.288 9.19531 110.208 9.45131 110.048C9.71531 109.88 9.92331 109.652 10.0753 109.364C10.2273 109.076 10.3033 108.748 10.3033 108.38V107.012C10.3033 106.476 10.1953 106.088 9.97931 105.848C9.76331 105.6 9.41931 105.476 8.94731 105.476C8.59531 105.476 8.25531 105.528 7.92731 105.632C7.60731 105.736 7.27531 105.9 6.93131 106.124L6.64331 105.56C6.85131 105.416 7.07931 105.292 7.32731 105.188C7.58331 105.084 7.84731 105.004 8.11931 104.948C8.39931 104.884 8.67131 104.852 8.93531 104.852C9.40731 104.852 9.79531 104.932 10.0993 105.092C10.4113 105.252 10.6393 105.492 10.7833 105.812C10.9353 106.132 11.0113 106.544 11.0113 107.048V110.78H10.3153V109.376H10.4353C10.3633 109.688 10.2353 109.956 10.0513 110.18C9.86731 110.404 9.63931 110.576 9.36731 110.696C9.09531 110.816 8.79131 110.876 8.45531 110.876ZM12.9248 110.78V104.96H13.6448V106.316H13.5128C13.6728 105.836 13.9448 105.472 14.3288 105.224C14.7208 104.976 15.1688 104.852 15.6728 104.852C16.1368 104.852 16.5208 104.936 16.8248 105.104C17.1368 105.264 17.3688 105.512 17.5208 105.848C17.6728 106.184 17.7488 106.604 17.7488 107.108V110.78H17.0168V107.168C17.0168 106.784 16.9648 106.468 16.8608 106.22C16.7648 105.972 16.6088 105.788 16.3928 105.668C16.1768 105.548 15.9008 105.488 15.5648 105.488C15.1808 105.488 14.8448 105.568 14.5568 105.728C14.2768 105.888 14.0568 106.116 13.8968 106.412C13.7368 106.708 13.6568 107.056 13.6568 107.456V110.78H12.9248Z" fill="#181819"/>
<path d="M37.5996 110.78V105.548H36.4476V104.96H37.7916L37.5996 105.152V104.672C37.5996 103.92 37.7836 103.352 38.1516 102.968C38.5196 102.576 39.0836 102.36 39.8436 102.32L40.2636 102.284L40.3236 102.884L39.7716 102.92C39.4436 102.944 39.1716 103.02 38.9556 103.148C38.7476 103.276 38.5916 103.464 38.4876 103.712C38.3836 103.952 38.3316 104.252 38.3316 104.612V105.128L38.2236 104.96H40.0476V105.548H38.3316V110.78H37.5996ZM43.5119 110.876C42.9119 110.876 42.3959 110.756 41.9639 110.516C41.5319 110.276 41.1999 109.932 40.9679 109.484C40.7359 109.036 40.6199 108.504 40.6199 107.888C40.6199 107.28 40.7359 106.752 40.9679 106.304C41.1999 105.848 41.5199 105.492 41.9279 105.236C42.3439 104.98 42.8199 104.852 43.3559 104.852C43.8759 104.852 44.3159 104.968 44.6759 105.2C45.0439 105.424 45.3239 105.748 45.5159 106.172C45.7159 106.588 45.8159 107.092 45.8159 107.684V108.02H41.1479V107.48H45.3599L45.1679 107.636C45.1679 106.948 45.0159 106.412 44.7119 106.028C44.4079 105.636 43.9599 105.44 43.3679 105.44C42.9279 105.44 42.5559 105.544 42.2519 105.752C41.9479 105.952 41.7199 106.232 41.5679 106.592C41.4159 106.944 41.3399 107.352 41.3399 107.816V107.876C41.3399 108.388 41.4199 108.824 41.5799 109.184C41.7479 109.536 41.9959 109.804 42.3239 109.988C42.6519 110.172 43.0399 110.264 43.4879 110.264C43.8479 110.264 44.1839 110.208 44.4959 110.096C44.8159 109.984 45.1279 109.796 45.4319 109.532L45.7199 110.084C45.4639 110.324 45.1359 110.516 44.7359 110.66C44.3359 110.804 43.9279 110.876 43.5119 110.876ZM50.08 110.876C49.536 110.876 49.072 110.736 48.688 110.456C48.304 110.176 48.044 109.8 47.908 109.328H48.04V110.78H47.308V102.32H48.04V106.4H47.908C48.044 105.928 48.304 105.552 48.688 105.272C49.072 104.992 49.536 104.852 50.08 104.852C50.608 104.852 51.064 104.976 51.448 105.224C51.832 105.472 52.128 105.82 52.336 106.268C52.552 106.716 52.66 107.248 52.66 107.864C52.66 108.48 52.552 109.016 52.336 109.472C52.128 109.92 51.828 110.268 51.436 110.516C51.052 110.756 50.6 110.876 50.08 110.876ZM49.972 110.264C50.564 110.264 51.036 110.056 51.388 109.64C51.74 109.224 51.916 108.632 51.916 107.864C51.916 107.104 51.74 106.516 51.388 106.1C51.036 105.684 50.564 105.476 49.972 105.476C49.38 105.476 48.908 105.684 48.556 106.1C48.204 106.516 48.028 107.104 48.028 107.864C48.028 108.632 48.204 109.224 48.556 109.64C48.908 110.056 49.38 110.264 49.972 110.264Z" fill="#181819"/>
<path d="M71.7113 110.78V104.96H72.4313V106.316H72.2993C72.3953 106.004 72.5353 105.74 72.7193 105.524C72.9113 105.308 73.1393 105.144 73.4033 105.032C73.6673 104.912 73.9553 104.852 74.2673 104.852C74.7793 104.852 75.1873 104.976 75.4913 105.224C75.8033 105.472 76.0073 105.844 76.1033 106.34H75.9233C76.0593 105.892 76.3113 105.532 76.6793 105.26C77.0553 104.988 77.4953 104.852 77.9993 104.852C78.4313 104.852 78.7873 104.936 79.0673 105.104C79.3553 105.272 79.5713 105.524 79.7153 105.86C79.8593 106.188 79.9313 106.604 79.9313 107.108V110.78H79.1993V107.168C79.1993 106.584 79.0953 106.16 78.8873 105.896C78.6873 105.624 78.3473 105.488 77.8673 105.488C77.5313 105.488 77.2353 105.568 76.9793 105.728C76.7233 105.888 76.5273 106.116 76.3913 106.412C76.2553 106.708 76.1873 107.06 76.1873 107.468V110.78H75.4553V107.168C75.4553 106.584 75.3513 106.16 75.1433 105.896C74.9433 105.624 74.6073 105.488 74.1353 105.488C73.7913 105.488 73.4913 105.568 73.2353 105.728C72.9873 105.888 72.7913 106.116 72.6473 106.412C72.5113 106.708 72.4433 107.06 72.4433 107.468V110.78H71.7113ZM83.6475 110.876C83.2555 110.876 82.9035 110.8 82.5915 110.648C82.2875 110.496 82.0435 110.288 81.8595 110.024C81.6835 109.76 81.5955 109.464 81.5955 109.136C81.5955 108.704 81.7035 108.364 81.9195 108.116C82.1355 107.868 82.4995 107.696 83.0115 107.6C83.5235 107.496 84.2275 107.444 85.1235 107.444H85.6395V107.984H85.1355C84.5995 107.984 84.1475 108 83.7795 108.032C83.4195 108.064 83.1355 108.124 82.9275 108.212C82.7195 108.292 82.5715 108.404 82.4835 108.548C82.4035 108.692 82.3635 108.868 82.3635 109.076C82.3635 109.436 82.4875 109.728 82.7355 109.952C82.9835 110.176 83.3195 110.288 83.7435 110.288C84.0875 110.288 84.3875 110.208 84.6435 110.048C84.9075 109.88 85.1155 109.652 85.2675 109.364C85.4195 109.076 85.4955 108.748 85.4955 108.38V107.012C85.4955 106.476 85.3875 106.088 85.1715 105.848C84.9555 105.6 84.6115 105.476 84.1395 105.476C83.7875 105.476 83.4475 105.528 83.1195 105.632C82.7995 105.736 82.4675 105.9 82.1235 106.124L81.8355 105.56C82.0435 105.416 82.2715 105.292 82.5195 105.188C82.7755 105.084 83.0395 105.004 83.3115 104.948C83.5915 104.884 83.8635 104.852 84.1275 104.852C84.5995 104.852 84.9875 104.932 85.2915 105.092C85.6035 105.252 85.8315 105.492 85.9755 105.812C86.1275 106.132 86.2035 106.544 86.2035 107.048V110.78H85.5075V109.376H85.6275C85.5555 109.688 85.4275 109.956 85.2435 110.18C85.0595 110.404 84.8315 110.576 84.5595 110.696C84.2875 110.816 83.9835 110.876 83.6475 110.876ZM88.117 110.78V104.96H88.837V106.328H88.717C88.869 105.856 89.113 105.5 89.449 105.26C89.793 105.02 90.241 104.88 90.793 104.84L91.093 104.816L91.165 105.452L90.649 105.512C90.081 105.568 89.641 105.756 89.329 106.076C89.017 106.396 88.861 106.828 88.861 107.372V110.78H88.117Z" fill="#181819"/>
<path d="M111.851 110.876C111.459 110.876 111.107 110.8 110.795 110.648C110.491 110.496 110.247 110.288 110.063 110.024C109.887 109.76 109.799 109.464 109.799 109.136C109.799 108.704 109.907 108.364 110.123 108.116C110.339 107.868 110.703 107.696 111.215 107.6C111.727 107.496 112.431 107.444 113.327 107.444H113.843V107.984H113.339C112.803 107.984 112.351 108 111.983 108.032C111.623 108.064 111.339 108.124 111.131 108.212C110.923 108.292 110.775 108.404 110.687 108.548C110.607 108.692 110.567 108.868 110.567 109.076C110.567 109.436 110.691 109.728 110.939 109.952C111.187 110.176 111.523 110.288 111.947 110.288C112.291 110.288 112.591 110.208 112.847 110.048C113.111 109.88 113.319 109.652 113.471 109.364C113.623 109.076 113.699 108.748 113.699 108.38V107.012C113.699 106.476 113.591 106.088 113.375 105.848C113.159 105.6 112.815 105.476 112.343 105.476C111.991 105.476 111.651 105.528 111.323 105.632C111.003 105.736 110.671 105.9 110.327 106.124L110.039 105.56C110.247 105.416 110.475 105.292 110.723 105.188C110.979 105.084 111.243 105.004 111.515 104.948C111.795 104.884 112.067 104.852 112.331 104.852C112.803 104.852 113.191 104.932 113.495 105.092C113.807 105.252 114.035 105.492 114.179 105.812C114.331 106.132 114.407 106.544 114.407 107.048V110.78H113.711V109.376H113.831C113.759 109.688 113.631 109.956 113.447 110.18C113.263 110.404 113.035 110.576 112.763 110.696C112.491 110.816 112.187 110.876 111.851 110.876ZM116.32 112.94V104.96H117.052V106.412H116.92C117.056 105.932 117.316 105.552 117.7 105.272C118.084 104.992 118.548 104.852 119.092 104.852C119.612 104.852 120.064 104.976 120.448 105.224C120.84 105.472 121.14 105.82 121.348 106.268C121.564 106.716 121.672 107.248 121.672 107.864C121.672 108.48 121.564 109.016 121.348 109.472C121.14 109.92 120.844 110.268 120.46 110.516C120.076 110.756 119.62 110.876 119.092 110.876C118.548 110.876 118.084 110.736 117.7 110.456C117.316 110.176 117.056 109.804 116.92 109.34H117.052V112.94H116.32ZM118.984 110.264C119.576 110.264 120.048 110.056 120.4 109.64C120.752 109.224 120.928 108.632 120.928 107.864C120.928 107.104 120.752 106.516 120.4 106.1C120.048 105.684 119.576 105.476 118.984 105.476C118.392 105.476 117.92 105.684 117.568 106.1C117.216 106.516 117.04 107.104 117.04 107.864C117.04 108.632 117.216 109.224 117.568 109.64C117.92 110.056 118.392 110.264 118.984 110.264ZM123.223 110.78V104.96H123.943V106.328H123.823C123.975 105.856 124.219 105.5 124.555 105.26C124.899 105.02 125.347 104.88 125.899 104.84L126.199 104.816L126.271 105.452L125.755 105.512C125.187 105.568 124.747 105.756 124.435 106.076C124.123 106.396 123.967 106.828 123.967 107.372V110.78H123.223Z" fill="#181819"/>
<path d="M145.439 110.78V104.96H146.159V106.316H146.027C146.123 106.004 146.263 105.74 146.447 105.524C146.639 105.308 146.867 105.144 147.131 105.032C147.395 104.912 147.683 104.852 147.995 104.852C148.507 104.852 148.915 104.976 149.219 105.224C149.531 105.472 149.735 105.844 149.831 106.34H149.651C149.787 105.892 150.039 105.532 150.407 105.26C150.783 104.988 151.223 104.852 151.727 104.852C152.159 104.852 152.515 104.936 152.795 105.104C153.083 105.272 153.299 105.524 153.443 105.86C153.587 106.188 153.659 106.604 153.659 107.108V110.78H152.927V107.168C152.927 106.584 152.823 106.16 152.615 105.896C152.415 105.624 152.075 105.488 151.595 105.488C151.259 105.488 150.963 105.568 150.707 105.728C150.451 105.888 150.255 106.116 150.119 106.412C149.983 106.708 149.915 107.06 149.915 107.468V110.78H149.183V107.168C149.183 106.584 149.079 106.16 148.871 105.896C148.671 105.624 148.335 105.488 147.863 105.488C147.519 105.488 147.219 105.568 146.963 105.728C146.715 105.888 146.519 106.116 146.375 106.412C146.239 106.708 146.171 107.06 146.171 107.468V110.78H145.439ZM158.107 110.876C157.507 110.876 156.991 110.756 156.559 110.516C156.127 110.276 155.795 109.932 155.563 109.484C155.331 109.036 155.215 108.504 155.215 107.888C155.215 107.28 155.331 106.752 155.563 106.304C155.795 105.848 156.115 105.492 156.523 105.236C156.939 104.98 157.415 104.852 157.951 104.852C158.471 104.852 158.911 104.968 159.271 105.2C159.639 105.424 159.919 105.748 160.111 106.172C160.311 106.588 160.411 107.092 160.411 107.684V108.02H155.743V107.48H159.955L159.763 107.636C159.763 106.948 159.611 106.412 159.307 106.028C159.003 105.636 158.555 105.44 157.963 105.44C157.523 105.44 157.151 105.544 156.847 105.752C156.543 105.952 156.315 106.232 156.163 106.592C156.011 106.944 155.935 107.352 155.935 107.816V107.876C155.935 108.388 156.015 108.824 156.175 109.184C156.343 109.536 156.591 109.804 156.919 109.988C157.247 110.172 157.635 110.264 158.083 110.264C158.443 110.264 158.779 110.208 159.091 110.096C159.411 109.984 159.723 109.796 160.027 109.532L160.315 110.084C160.059 110.324 159.731 110.516 159.331 110.66C158.931 110.804 158.523 110.876 158.107 110.876ZM161.783 103.424V102.5H162.767V103.424H161.783ZM161.903 110.78V104.96H162.635V110.78H161.903Z" fill="#181819"/>
<path d="M182.694 103.424V102.5H183.678V103.424H182.694ZM181.182 113.096L181.134 112.496L181.638 112.448C182.022 112.416 182.314 112.276 182.514 112.028C182.722 111.788 182.826 111.448 182.826 111.008V104.96H183.558V110.948C183.558 111.276 183.518 111.564 183.438 111.812C183.358 112.068 183.238 112.284 183.078 112.46C182.926 112.636 182.734 112.776 182.502 112.88C182.278 112.984 182.01 113.044 181.698 113.06L181.182 113.096ZM187.525 110.876C187.061 110.876 186.673 110.792 186.361 110.624C186.057 110.456 185.829 110.204 185.677 109.868C185.525 109.532 185.449 109.116 185.449 108.62V104.96H186.181V108.584C186.181 108.96 186.229 109.272 186.325 109.52C186.429 109.768 186.589 109.952 186.805 110.072C187.021 110.192 187.293 110.252 187.621 110.252C187.981 110.252 188.297 110.172 188.569 110.012C188.841 109.844 189.053 109.612 189.205 109.316C189.365 109.02 189.445 108.672 189.445 108.272V104.96H190.177V110.78H189.469V109.376H189.613C189.461 109.864 189.197 110.236 188.821 110.492C188.445 110.748 188.013 110.876 187.525 110.876ZM192.106 110.78V104.96H192.826V106.316H192.694C192.854 105.836 193.126 105.472 193.51 105.224C193.902 104.976 194.35 104.852 194.854 104.852C195.318 104.852 195.702 104.936 196.006 105.104C196.318 105.264 196.55 105.512 196.702 105.848C196.854 106.184 196.93 106.604 196.93 107.108V110.78H196.198V107.168C196.198 106.784 196.146 106.468 196.042 106.22C195.946 105.972 195.79 105.788 195.574 105.668C195.358 105.548 195.082 105.488 194.746 105.488C194.362 105.488 194.026 105.568 193.738 105.728C193.458 105.888 193.238 106.116 193.078 106.412C192.918 106.708 192.838 107.056 192.838 107.456V110.78H192.106Z" fill="#181819"/>
<path d="M217.058 103.424V102.5H218.042V103.424H217.058ZM215.546 113.096L215.498 112.496L216.002 112.448C216.386 112.416 216.678 112.276 216.878 112.028C217.086 111.788 217.19 111.448 217.19 111.008V104.96H217.922V110.948C217.922 111.276 217.882 111.564 217.802 111.812C217.722 112.068 217.602 112.284 217.442 112.46C217.29 112.636 217.098 112.776 216.866 112.88C216.642 112.984 216.374 113.044 216.062 113.06L215.546 113.096ZM221.889 110.876C221.425 110.876 221.037 110.792 220.725 110.624C220.421 110.456 220.193 110.204 220.041 109.868C219.889 109.532 219.813 109.116 219.813 108.62V104.96H220.545V108.584C220.545 108.96 220.593 109.272 220.689 109.52C220.793 109.768 220.953 109.952 221.169 110.072C221.385 110.192 221.657 110.252 221.985 110.252C222.345 110.252 222.661 110.172 222.933 110.012C223.205 109.844 223.417 109.612 223.569 109.316C223.729 109.02 223.809 108.672 223.809 108.272V104.96H224.541V110.78H223.833V109.376H223.977C223.825 109.864 223.561 110.236 223.185 110.492C222.809 110.748 222.377 110.876 221.889 110.876ZM228.162 110.876C227.618 110.876 227.198 110.708 226.902 110.372C226.614 110.036 226.47 109.56 226.47 108.944V102.32H227.202V108.86C227.202 109.164 227.242 109.42 227.322 109.628C227.41 109.828 227.534 109.98 227.694 110.084C227.854 110.188 228.05 110.24 228.282 110.24C228.386 110.24 228.482 110.236 228.57 110.228C228.666 110.212 228.754 110.192 228.834 110.168L228.81 110.804C228.69 110.828 228.578 110.844 228.474 110.852C228.37 110.868 228.266 110.876 228.162 110.876Z" fill="#181819"/>
<path d="M249.305 110.876C248.913 110.876 248.561 110.8 248.249 110.648C247.945 110.496 247.701 110.288 247.517 110.024C247.341 109.76 247.253 109.464 247.253 109.136C247.253 108.704 247.361 108.364 247.577 108.116C247.793 107.868 248.157 107.696 248.669 107.6C249.181 107.496 249.885 107.444 250.781 107.444H251.297V107.984H250.793C250.257 107.984 249.805 108 249.437 108.032C249.077 108.064 248.793 108.124 248.585 108.212C248.377 108.292 248.229 108.404 248.141 108.548C248.061 108.692 248.021 108.868 248.021 109.076C248.021 109.436 248.145 109.728 248.393 109.952C248.641 110.176 248.977 110.288 249.401 110.288C249.745 110.288 250.045 110.208 250.301 110.048C250.565 109.88 250.773 109.652 250.925 109.364C251.077 109.076 251.153 108.748 251.153 108.38V107.012C251.153 106.476 251.045 106.088 250.829 105.848C250.613 105.6 250.269 105.476 249.797 105.476C249.445 105.476 249.105 105.528 248.777 105.632C248.457 105.736 248.125 105.9 247.781 106.124L247.493 105.56C247.701 105.416 247.929 105.292 248.177 105.188C248.433 105.084 248.697 105.004 248.969 104.948C249.249 104.884 249.521 104.852 249.785 104.852C250.257 104.852 250.645 104.932 250.949 105.092C251.261 105.252 251.489 105.492 251.633 105.812C251.785 106.132 251.861 106.544 251.861 107.048V110.78H251.165V109.376H251.285C251.213 109.688 251.085 109.956 250.901 110.18C250.717 110.404 250.489 110.576 250.217 110.696C249.945 110.816 249.641 110.876 249.305 110.876ZM255.827 110.876C255.363 110.876 254.975 110.792 254.663 110.624C254.359 110.456 254.131 110.204 253.979 109.868C253.827 109.532 253.751 109.116 253.751 108.62V104.96H254.483V108.584C254.483 108.96 254.531 109.272 254.627 109.52C254.731 109.768 254.891 109.952 255.107 110.072C255.323 110.192 255.595 110.252 255.923 110.252C256.283 110.252 256.599 110.172 256.871 110.012C257.143 109.844 257.355 109.612 257.507 109.316C257.667 109.02 257.747 108.672 257.747 108.272V104.96H258.479V110.78H257.771V109.376H257.915C257.763 109.864 257.499 110.236 257.123 110.492C256.747 110.748 256.315 110.876 255.827 110.876ZM262.94 113.036C262.444 113.036 261.98 112.968 261.548 112.832C261.124 112.696 260.744 112.496 260.408 112.232L260.684 111.68C260.932 111.856 261.172 112 261.404 112.112C261.636 112.224 261.872 112.304 262.112 112.352C262.36 112.4 262.628 112.424 262.916 112.424C263.5 112.424 263.944 112.26 264.248 111.932C264.552 111.612 264.704 111.152 264.704 110.552V109.064H264.824C264.704 109.56 264.448 109.948 264.056 110.228C263.664 110.508 263.2 110.648 262.664 110.648C262.128 110.648 261.664 110.528 261.272 110.288C260.88 110.04 260.576 109.7 260.36 109.268C260.152 108.828 260.048 108.32 260.048 107.744C260.048 107.168 260.152 106.664 260.36 106.232C260.576 105.8 260.88 105.464 261.272 105.224C261.664 104.976 262.128 104.852 262.664 104.852C263.2 104.852 263.664 104.996 264.056 105.284C264.448 105.564 264.7 105.944 264.812 106.424H264.692V104.96H265.412V110.444C265.412 111.012 265.32 111.488 265.136 111.872C264.952 112.264 264.676 112.556 264.308 112.748C263.94 112.94 263.484 113.036 262.94 113.036ZM262.748 110.024C263.348 110.024 263.824 109.82 264.176 109.412C264.528 108.996 264.704 108.44 264.704 107.744C264.704 107.048 264.528 106.496 264.176 106.088C263.824 105.68 263.348 105.476 262.748 105.476C262.148 105.476 261.672 105.68 261.32 106.088C260.968 106.496 260.792 107.048 260.792 107.744C260.792 108.44 260.968 108.996 261.32 109.412C261.672 109.82 262.148 110.024 262.748 110.024Z" fill="#181819"/>
<path d="M286.765 110.876C286.477 110.876 286.193 110.848 285.913 110.792C285.641 110.736 285.385 110.652 285.145 110.54C284.913 110.428 284.713 110.292 284.545 110.132L284.809 109.592C285.009 109.752 285.217 109.884 285.433 109.988C285.649 110.084 285.869 110.156 286.093 110.204C286.325 110.252 286.557 110.276 286.789 110.276C287.277 110.276 287.649 110.184 287.905 110C288.161 109.816 288.289 109.568 288.289 109.256C288.289 109 288.205 108.804 288.037 108.668C287.877 108.524 287.613 108.408 287.245 108.32L286.201 108.08C285.697 107.968 285.325 107.788 285.085 107.54C284.845 107.284 284.725 106.956 284.725 106.556C284.725 106.212 284.813 105.912 284.989 105.656C285.173 105.4 285.429 105.204 285.757 105.068C286.093 104.924 286.477 104.852 286.909 104.852C287.173 104.852 287.429 104.884 287.677 104.948C287.925 105.004 288.153 105.088 288.361 105.2C288.569 105.312 288.749 105.452 288.901 105.62L288.613 106.16C288.461 106.008 288.289 105.88 288.097 105.776C287.913 105.672 287.721 105.596 287.521 105.548C287.321 105.492 287.113 105.464 286.897 105.464C286.433 105.464 286.073 105.56 285.817 105.752C285.569 105.944 285.445 106.204 285.445 106.532C285.445 106.78 285.521 106.98 285.673 107.132C285.833 107.284 286.081 107.4 286.417 107.48L287.461 107.72C287.981 107.84 288.369 108.02 288.625 108.26C288.881 108.492 289.009 108.808 289.009 109.208C289.009 109.552 288.917 109.852 288.733 110.108C288.549 110.356 288.289 110.548 287.953 110.684C287.617 110.812 287.221 110.876 286.765 110.876ZM293.132 110.876C292.532 110.876 292.016 110.756 291.584 110.516C291.152 110.276 290.82 109.932 290.588 109.484C290.356 109.036 290.24 108.504 290.24 107.888C290.24 107.28 290.356 106.752 290.588 106.304C290.82 105.848 291.14 105.492 291.548 105.236C291.964 104.98 292.44 104.852 292.976 104.852C293.496 104.852 293.936 104.968 294.296 105.2C294.664 105.424 294.944 105.748 295.136 106.172C295.336 106.588 295.436 107.092 295.436 107.684V108.02H290.768V107.48H294.98L294.788 107.636C294.788 106.948 294.636 106.412 294.332 106.028C294.028 105.636 293.58 105.44 292.988 105.44C292.548 105.44 292.176 105.544 291.872 105.752C291.568 105.952 291.34 106.232 291.188 106.592C291.036 106.944 290.96 107.352 290.96 107.816V107.876C290.96 108.388 291.04 108.824 291.2 109.184C291.368 109.536 291.616 109.804 291.944 109.988C292.272 110.172 292.66 110.264 293.108 110.264C293.468 110.264 293.804 110.208 294.116 110.096C294.436 109.984 294.748 109.796 295.052 109.532L295.34 110.084C295.084 110.324 294.756 110.516 294.356 110.66C293.956 110.804 293.548 110.876 293.132 110.876ZM296.928 112.94V104.96H297.66V106.412H297.528C297.664 105.932 297.924 105.552 298.308 105.272C298.692 104.992 299.156 104.852 299.7 104.852C300.22 104.852 300.672 104.976 301.056 105.224C301.448 105.472 301.748 105.82 301.956 106.268C302.172 106.716 302.28 107.248 302.28 107.864C302.28 108.48 302.172 109.016 301.956 109.472C301.748 109.92 301.452 110.268 301.068 110.516C300.684 110.756 300.228 110.876 299.7 110.876C299.156 110.876 298.692 110.736 298.308 110.456C297.924 110.176 297.664 109.804 297.528 109.34H297.66V112.94H296.928ZM299.592 110.264C300.184 110.264 300.656 110.056 301.008 109.64C301.36 109.224 301.536 108.632 301.536 107.864C301.536 107.104 301.36 106.516 301.008 106.1C300.656 105.684 300.184 105.476 299.592 105.476C299 105.476 298.528 105.684 298.176 106.1C297.824 106.516 297.648 107.104 297.648 107.864C297.648 108.632 297.824 109.224 298.176 109.64C298.528 110.056 299 110.264 299.592 110.264Z" fill="#181819"/>
<path d="M323.549 110.876C323.005 110.876 322.533 110.752 322.133 110.504C321.733 110.256 321.421 109.908 321.197 109.46C320.981 109.012 320.873 108.48 320.873 107.864C320.873 107.256 320.981 106.728 321.197 106.28C321.421 105.824 321.733 105.472 322.133 105.224C322.533 104.976 323.005 104.852 323.549 104.852C324.101 104.852 324.577 104.976 324.977 105.224C325.377 105.472 325.685 105.824 325.901 106.28C326.125 106.728 326.237 107.256 326.237 107.864C326.237 108.48 326.125 109.012 325.901 109.46C325.685 109.908 325.377 110.256 324.977 110.504C324.577 110.752 324.101 110.876 323.549 110.876ZM323.549 110.264C324.149 110.264 324.621 110.056 324.965 109.64C325.317 109.224 325.493 108.632 325.493 107.864C325.493 107.104 325.317 106.516 324.965 106.1C324.621 105.684 324.149 105.476 323.549 105.476C322.965 105.476 322.497 105.684 322.145 106.1C321.793 106.516 321.617 107.104 321.617 107.864C321.617 108.632 321.793 109.224 322.145 109.64C322.497 110.056 322.965 110.264 323.549 110.264ZM330.171 110.876C329.603 110.876 329.115 110.752 328.707 110.504C328.299 110.248 327.983 109.892 327.759 109.436C327.543 108.972 327.435 108.436 327.435 107.828C327.435 107.212 327.543 106.684 327.759 106.244C327.983 105.804 328.299 105.464 328.707 105.224C329.115 104.976 329.603 104.852 330.171 104.852C330.531 104.852 330.879 104.92 331.215 105.056C331.559 105.192 331.847 105.38 332.079 105.62L331.791 106.172C331.543 105.932 331.279 105.76 330.999 105.656C330.719 105.544 330.451 105.488 330.195 105.488C329.547 105.488 329.047 105.692 328.695 106.1C328.351 106.5 328.179 107.08 328.179 107.84C328.179 108.592 328.351 109.184 328.695 109.616C329.047 110.04 329.547 110.252 330.195 110.252C330.451 110.252 330.719 110.2 330.999 110.096C331.279 109.984 331.543 109.808 331.791 109.568L332.079 110.12C331.847 110.352 331.555 110.536 331.203 110.672C330.859 110.808 330.515 110.876 330.171 110.876ZM335.499 110.876C334.851 110.876 334.363 110.7 334.035 110.348C333.715 109.996 333.555 109.492 333.555 108.836V105.548H332.403V104.96H333.555V103.16H334.287V104.96H336.171V105.548H334.287V108.74C334.287 109.228 334.387 109.6 334.587 109.856C334.787 110.112 335.119 110.24 335.583 110.24C335.719 110.24 335.851 110.224 335.979 110.192C336.107 110.152 336.219 110.116 336.315 110.084L336.459 110.66C336.371 110.716 336.231 110.764 336.039 110.804C335.847 110.852 335.667 110.876 335.499 110.876Z" fill="#181819"/>
<path d="M355.596 110.78V104.96H356.316V106.316H356.184C356.344 105.836 356.616 105.472 357 105.224C357.392 104.976 357.84 104.852 358.344 104.852C358.808 104.852 359.192 104.936 359.496 105.104C359.808 105.264 360.04 105.512 360.192 105.848C360.344 106.184 360.42 106.604 360.42 107.108V110.78H359.688V107.168C359.688 106.784 359.636 106.468 359.532 106.22C359.436 105.972 359.28 105.788 359.064 105.668C358.848 105.548 358.572 105.488 358.236 105.488C357.852 105.488 357.516 105.568 357.228 105.728C356.948 105.888 356.728 106.116 356.568 106.412C356.408 106.708 356.328 107.056 356.328 107.456V110.78H355.596ZM364.627 110.876C364.083 110.876 363.611 110.752 363.211 110.504C362.811 110.256 362.499 109.908 362.275 109.46C362.059 109.012 361.951 108.48 361.951 107.864C361.951 107.256 362.059 106.728 362.275 106.28C362.499 105.824 362.811 105.472 363.211 105.224C363.611 104.976 364.083 104.852 364.627 104.852C365.179 104.852 365.655 104.976 366.055 105.224C366.455 105.472 366.763 105.824 366.979 106.28C367.203 106.728 367.315 107.256 367.315 107.864C367.315 108.48 367.203 109.012 366.979 109.46C366.763 109.908 366.455 110.256 366.055 110.504C365.655 110.752 365.179 110.876 364.627 110.876ZM364.627 110.264C365.227 110.264 365.699 110.056 366.043 109.64C366.395 109.224 366.571 108.632 366.571 107.864C366.571 107.104 366.395 106.516 366.043 106.1C365.699 105.684 365.227 105.476 364.627 105.476C364.043 105.476 363.575 105.684 363.223 106.1C362.871 106.516 362.695 107.104 362.695 107.864C362.695 108.632 362.871 109.224 363.223 109.64C363.575 110.056 364.043 110.264 364.627 110.264ZM370.531 110.78L368.035 104.96H368.851L371.059 110.336H370.759L372.991 104.96H373.759L371.263 110.78H370.531Z" fill="#181819"/>
<path d="M395.18 110.876C394.66 110.876 394.204 110.756 393.812 110.516C393.428 110.268 393.128 109.92 392.912 109.472C392.704 109.016 392.6 108.48 392.6 107.864C392.6 107.248 392.704 106.716 392.912 106.268C393.12 105.82 393.416 105.472 393.8 105.224C394.192 104.976 394.652 104.852 395.18 104.852C395.724 104.852 396.188 104.992 396.572 105.272C396.956 105.552 397.212 105.928 397.34 106.4H397.208V102.32H397.94V110.78H397.22V109.328H397.34C397.212 109.8 396.956 110.176 396.572 110.456C396.188 110.736 395.724 110.876 395.18 110.876ZM395.276 110.264C395.876 110.264 396.348 110.056 396.692 109.64C397.044 109.224 397.22 108.632 397.22 107.864C397.22 107.104 397.044 106.516 396.692 106.1C396.348 105.684 395.876 105.476 395.276 105.476C394.692 105.476 394.224 105.684 393.872 106.1C393.52 106.516 393.344 107.104 393.344 107.864C393.344 108.632 393.52 109.224 393.872 109.64C394.224 110.056 394.692 110.264 395.276 110.264ZM402.394 110.876C401.794 110.876 401.278 110.756 400.846 110.516C400.414 110.276 400.082 109.932 399.85 109.484C399.618 109.036 399.502 108.504 399.502 107.888C399.502 107.28 399.618 106.752 399.85 106.304C400.082 105.848 400.402 105.492 400.81 105.236C401.226 104.98 401.702 104.852 402.238 104.852C402.758 104.852 403.198 104.968 403.558 105.2C403.926 105.424 404.206 105.748 404.398 106.172C404.598 106.588 404.698 107.092 404.698 107.684V108.02H400.03V107.48H404.242L404.05 107.636C404.05 106.948 403.898 106.412 403.594 106.028C403.29 105.636 402.842 105.44 402.25 105.44C401.81 105.44 401.438 105.544 401.134 105.752C400.83 105.952 400.602 106.232 400.45 106.592C400.298 106.944 400.222 107.352 400.222 107.816V107.876C400.222 108.388 400.302 108.824 400.462 109.184C400.63 109.536 400.878 109.804 401.206 109.988C401.534 110.172 401.922 110.264 402.37 110.264C402.73 110.264 403.066 110.208 403.378 110.096C403.698 109.984 404.01 109.796 404.314 109.532L404.602 110.084C404.346 110.324 404.018 110.516 403.618 110.66C403.218 110.804 402.81 110.876 402.394 110.876ZM408.566 110.876C407.998 110.876 407.51 110.752 407.102 110.504C406.694 110.248 406.378 109.892 406.154 109.436C405.938 108.972 405.83 108.436 405.83 107.828C405.83 107.212 405.938 106.684 406.154 106.244C406.378 105.804 406.694 105.464 407.102 105.224C407.51 104.976 407.998 104.852 408.566 104.852C408.926 104.852 409.274 104.92 409.61 105.056C409.954 105.192 410.242 105.38 410.474 105.62L410.186 106.172C409.938 105.932 409.674 105.76 409.394 105.656C409.114 105.544 408.846 105.488 408.59 105.488C407.942 105.488 407.442 105.692 407.09 106.1C406.746 106.5 406.574 107.08 406.574 107.84C406.574 108.592 406.746 109.184 407.09 109.616C407.442 110.04 407.942 110.252 408.59 110.252C408.846 110.252 409.114 110.2 409.394 110.096C409.674 109.984 409.938 109.808 410.186 109.568L410.474 110.12C410.242 110.352 409.95 110.536 409.598 110.672C409.254 110.808 408.91 110.876 408.566 110.876Z" fill="#181819"/>
</svg>
