<svg width="24" height="24" viewBox="0 0 24 24" fill="none" xmlns="http://www.w3.org/2000/svg">
<path d="M11.2812 4.09375V3.375C11.2812 3.18438 11.357 3.00156 11.4918 2.86677C11.6266 2.73198 11.8094 2.65625 12 2.65625C12.1906 2.65625 12.3734 2.73198 12.5082 2.86677C12.643 3.00156 12.7188 3.18438 12.7188 3.375V4.09375C12.7188 4.28437 12.643 4.46719 12.5082 4.60198C12.3734 4.73677 12.1906 4.8125 12 4.8125C11.8094 4.8125 11.6266 4.73677 11.4918 4.60198C11.357 4.46719 11.2812 4.28437 11.2812 4.09375ZM12 6.25C10.8628 6.25 9.75105 6.58723 8.80547 7.21905C7.85989 7.85087 7.1229 8.7489 6.68769 9.79957C6.25249 10.8502 6.13862 12.0064 6.36048 13.1218C6.58235 14.2372 7.12998 15.2617 7.93414 16.0659C8.73829 16.87 9.76284 17.4177 10.8782 17.6395C11.9936 17.8614 13.1498 17.7475 14.2004 17.3123C15.2511 16.8771 16.1491 16.1401 16.7809 15.1945C17.4128 14.2489 17.75 13.1372 17.75 12C17.7483 10.4755 17.142 9.01395 16.064 7.93597C14.9861 6.858 13.5245 6.25166 12 6.25ZM5.74148 6.75852C5.87635 6.89338 6.05927 6.96915 6.25 6.96915C6.44073 6.96915 6.62365 6.89338 6.75852 6.75852C6.89338 6.62365 6.96915 6.44073 6.96915 6.25C6.96915 6.05927 6.89338 5.87635 6.75852 5.74148L6.03977 5.02273C5.9049 4.88787 5.72198 4.8121 5.53125 4.8121C5.34052 4.8121 5.1576 4.88787 5.02273 5.02273C4.88787 5.1576 4.8121 5.34052 4.8121 5.53125C4.8121 5.72198 4.88787 5.9049 5.02273 6.03977L5.74148 6.75852ZM5.74148 17.2415L5.02273 17.9602C4.88787 18.0951 4.8121 18.278 4.8121 18.4688C4.8121 18.6595 4.88787 18.8424 5.02273 18.9773C5.1576 19.1121 5.34052 19.1879 5.53125 19.1879C5.72198 19.1879 5.9049 19.1121 6.03977 18.9773L6.75852 18.2585C6.82529 18.1917 6.87827 18.1125 6.91441 18.0252C6.95055 17.938 6.96915 17.8444 6.96915 17.75C6.96915 17.6556 6.95055 17.562 6.91441 17.4748C6.87827 17.3875 6.82529 17.3083 6.75852 17.2415C6.69174 17.1747 6.61246 17.1217 6.52521 17.0856C6.43796 17.0495 6.34444 17.0308 6.25 17.0308C6.15556 17.0308 6.06204 17.0495 5.97479 17.0856C5.88754 17.1217 5.80826 17.1747 5.74148 17.2415ZM17.75 6.96875C17.8444 6.96882 17.9379 6.9503 18.0252 6.91422C18.1124 6.87815 18.1917 6.82524 18.2585 6.75852L18.9773 6.03977C19.1121 5.9049 19.1879 5.72198 19.1879 5.53125C19.1879 5.34052 19.1121 5.1576 18.9773 5.02273C18.8424 4.88787 18.6595 4.8121 18.4688 4.8121C18.278 4.8121 18.0951 4.88787 17.9602 5.02273L17.2415 5.74148C17.1409 5.84201 17.0723 5.97012 17.0445 6.10962C17.0167 6.24912 17.031 6.39373 17.0854 6.52513C17.1399 6.65653 17.2321 6.76883 17.3504 6.8478C17.4687 6.92677 17.6078 6.96886 17.75 6.96875ZM18.2585 17.2415C18.1236 17.1066 17.9407 17.0308 17.75 17.0308C17.5593 17.0308 17.3764 17.1066 17.2415 17.2415C17.1066 17.3764 17.0308 17.5593 17.0308 17.75C17.0308 17.9407 17.1066 18.1236 17.2415 18.2585L17.9602 18.9773C18.027 19.044 18.1063 19.097 18.1935 19.1332C18.2808 19.1693 18.3743 19.1879 18.4688 19.1879C18.5632 19.1879 18.6567 19.1693 18.744 19.1332C18.8312 19.097 18.9105 19.044 18.9773 18.9773C19.044 18.9105 19.097 18.8312 19.1332 18.744C19.1693 18.6567 19.1879 18.5632 19.1879 18.4688C19.1879 18.3743 19.1693 18.2808 19.1332 18.1935C19.097 18.1063 19.044 18.027 18.9773 17.9602L18.2585 17.2415ZM4.09375 11.2812H3.375C3.18438 11.2812 3.00156 11.357 2.86677 11.4918C2.73198 11.6266 2.65625 11.8094 2.65625 12C2.65625 12.1906 2.73198 12.3734 2.86677 12.5082C3.00156 12.643 3.18438 12.7188 3.375 12.7188H4.09375C4.28437 12.7188 4.46719 12.643 4.60198 12.5082C4.73677 12.3734 4.8125 12.1906 4.8125 12C4.8125 11.8094 4.73677 11.6266 4.60198 11.4918C4.46719 11.357 4.28437 11.2812 4.09375 11.2812ZM12 19.1875C11.8094 19.1875 11.6266 19.2632 11.4918 19.398C11.357 19.5328 11.2812 19.7156 11.2812 19.9062V20.625C11.2812 20.8156 11.357 20.9984 11.4918 21.1332C11.6266 21.268 11.8094 21.3438 12 21.3438C12.1906 21.3438 12.3734 21.268 12.5082 21.1332C12.643 20.9984 12.7188 20.8156 12.7188 20.625V19.9062C12.7188 19.7156 12.643 19.5328 12.5082 19.398C12.3734 19.2632 12.1906 19.1875 12 19.1875ZM20.625 11.2812H19.9062C19.7156 11.2812 19.5328 11.357 19.398 11.4918C19.2632 11.6266 19.1875 11.8094 19.1875 12C19.1875 12.1906 19.2632 12.3734 19.398 12.5082C19.5328 12.643 19.7156 12.7188 19.9062 12.7188H20.625C20.8156 12.7188 20.9984 12.643 21.1332 12.5082C21.268 12.3734 21.3438 12.1906 21.3438 12C21.3438 11.8094 21.268 11.6266 21.1332 11.4918C20.9984 11.357 20.8156 11.2812 20.625 11.2812Z" fill="#A9AAAF"/>
</svg>
