<svg width="24" height="24" viewBox="0 0 24 24" fill="none" xmlns="http://www.w3.org/2000/svg">
<path d="M21.2476 20.2656C21.1845 20.3749 21.0938 20.4657 20.9845 20.5287C20.8752 20.5918 20.7512 20.625 20.625 20.625H3.375C3.24889 20.6249 3.12504 20.5916 3.01588 20.5284C2.90672 20.4653 2.81609 20.3746 2.75309 20.2653C2.6901 20.1561 2.65695 20.0322 2.65698 19.9061C2.65701 19.78 2.69022 19.6561 2.75328 19.5469C4.1216 17.1813 6.23023 15.485 8.69105 14.6809C7.47382 13.9563 6.5281 12.8522 5.99914 11.538C5.47018 10.2239 5.38721 8.77246 5.76299 7.40661C6.13876 6.04077 6.9525 4.83604 8.07924 3.97743C9.20597 3.11882 10.5834 2.65381 12 2.65381C13.4166 2.65381 14.794 3.11882 15.9208 3.97743C17.0475 4.83604 17.8612 6.04077 18.237 7.40661C18.6128 8.77246 18.5298 10.2239 18.0009 11.538C17.4719 12.8522 16.5262 13.9563 15.3089 14.6809C17.7698 15.485 19.8784 17.1813 21.2467 19.5469C21.3099 19.6561 21.3433 19.78 21.3435 19.9061C21.3436 20.0323 21.3106 20.1563 21.2476 20.2656Z" fill="#A9AAAF"/>
</svg>
