<svg width="24" height="24" viewBox="0 0 24 24" fill="none" xmlns="http://www.w3.org/2000/svg">
<path d="M20.625 11.2812V19.9062C20.625 20.0969 20.5493 20.2797 20.4145 20.4145C20.2797 20.5493 20.0969 20.625 19.9062 20.625H14.875C14.6844 20.625 14.5016 20.5493 14.3668 20.4145C14.232 20.2797 14.1562 20.0969 14.1562 19.9062V15.2344C14.1562 15.1391 14.1184 15.0477 14.051 14.9803C13.9836 14.9129 13.8922 14.875 13.7969 14.875H10.2031C10.1078 14.875 10.0164 14.9129 9.94901 14.9803C9.88161 15.0477 9.84375 15.1391 9.84375 15.2344V19.9062C9.84375 20.0969 9.76802 20.2797 9.63323 20.4145C9.49844 20.5493 9.31562 20.625 9.125 20.625H4.09375C3.90313 20.625 3.72031 20.5493 3.58552 20.4145C3.45073 20.2797 3.375 20.0969 3.375 19.9062V11.2812C3.37518 10.9001 3.52674 10.5346 3.79637 10.2651L10.9839 3.07761C11.2534 2.80823 11.6189 2.65691 12 2.65691C12.3811 2.65691 12.7466 2.80823 13.0161 3.07761L20.2036 10.2651C20.4733 10.5346 20.6248 10.9001 20.625 11.2812Z" fill="#A9AAAF"/>
</svg>
